<svg xmlns="http://www.w3.org/2000/svg" width="19.597" height="19.596" viewBox="0 0 19.597 19.596">
  <path id="Path_1900" data-name="Path 1900" d="M86.488,5866.42c.454-1.059.89-2.129,1.37-3.172a1.324,1.324,0,0,0-.2-1.562,8.466,8.466,0,0,1-1.943-5.219,8.788,8.788,0,0,1,2.6-6.584,10.192,10.192,0,0,1,14.905.573,8.863,8.863,0,0,1-.786,12.246,9.671,9.671,0,0,1-8.395,2.568c-1.049-.166-2.06-.636-3.1-.9a1.483,1.483,0,0,0-1.038.1c-1.127.639-2.221,1.358-3.327,2.047Zm9.2-6.938h2.467v-2.1c0-1.162,0-1.161-.976-1.322-.031,0-.058-.047-.087-.073a2.181,2.181,0,0,1,.89-2,.712.712,0,0,0,.252-.519,8.345,8.345,0,0,0-.381-1.148,3.232,3.232,0,0,0-1.934,2.623C95.743,5856.426,95.756,5857.936,95.686,5859.481Zm-1.5.047a.835.835,0,0,0,.08-.191c.009-.667.018-1.334.02-2,0-1.127,0-1.126-.951-1.273-.03,0-.054-.052-.09-.089a2.2,2.2,0,0,1,1.255-2.207l-.479-1.444a2.918,2.918,0,0,0-1.854,2.3c-.2,1.5-.208,3.033-.27,4.553,0,.11.222.328.346.334C92.885,5859.547,93.531,5859.528,94.183,5859.528Z" transform="translate(-85.71 -5846.918)" fill="#898989"/>
</svg>
