<svg xmlns="http://www.w3.org/2000/svg" width="7.621" height="16.331" viewBox="0 0 7.621 16.331">
  <path id="Path_12696" data-name="Path 12696" d="M.794-12.719A.729.729,0,0,0,0-12.081v1.524a.729.729,0,0,0,.794.638H6.827a.729.729,0,0,0,.794-.638v-1.524a.729.729,0,0,0-.794-.638H6.033v-6.769a.729.729,0,0,0-.794-.638H.794A.729.729,0,0,0,0-19.488v1.524a.729.729,0,0,0,.794.638h.794v4.608ZM3.81-26.25a2.624,2.624,0,0,0-2.858,2.3,2.624,2.624,0,0,0,2.858,2.3,2.624,2.624,0,0,0,2.858-2.3A2.624,2.624,0,0,0,3.81-26.25Z" transform="translate(0 26.25)" fill="#898989"/>
</svg>
