<svg xmlns="http://www.w3.org/2000/svg" width="19.96" height="19.597" viewBox="0 0 19.96 19.597">
  <g id="Group_1584" data-name="Group 1584" transform="translate(0 0)">
    <path id="Path_1901" data-name="Path 1901" d="M86.151,5996.484c.388.722.741,1.386,1.1,2.046.368.678.745,1.349,1.11,2.029.227.423.18.577-.216.773s-.769.36-1.145.563c-.273.147-.442.076-.6-.216-.67-1.259-1.358-2.5-2.029-3.762-.138-.259-.267-.429-.572-.332s-.521-.114-.639-.416c-.357-.908-.709-1.817-1.04-2.737a.645.645,0,0,1,.3-.874c.443-.222.883-.451,1.333-.651a15.418,15.418,0,0,0,4.481-3.475,25.8,25.8,0,0,0,4.655-6.315c.034-.066.07-.13.1-.2.329-.7.533-.738.94-.067.557.916,1.054,1.879,1.57,2.827.113.208.2.435.293.655.237.554.443,1.034,1.084,1.249a1.746,1.746,0,0,1,.71,2.5.908.908,0,0,0-.065.764q.561,2.012,1.07,4.044a4.209,4.209,0,0,1,.077,1c0,.308-.084.446-.428.348-1.17-.332-2.347-.638-3.532-.889a11.256,11.256,0,0,0-4.1-.051c-1.245.2-2.47.562-3.7.868A6,6,0,0,0,86.151,5996.484Zm6.964-13.088c-.058.039-.088.049-.1.072-.061.1-.118.2-.175.308a26.983,26.983,0,0,1-7.41,8.665c-.51.385-.527.545-.084,1.077.067-.042.14-.079.206-.128a28.937,28.937,0,0,0,7.4-8.185A1.939,1.939,0,0,0,93.115,5983.4Z" transform="translate(-82.061 -5982.372)" fill="#898989"/>
    <path id="Path_1902" data-name="Path 1902" d="M155.181,5999.27l2.324-1,.1.227-2.324,1.013Z" transform="translate(-137.791 -5994.104)" fill="#898989"/>
    <path id="Path_1903" data-name="Path 1903" d="M157.686,6009.626l-2.419-.985.1-.239,2.437.986Z" transform="translate(-137.845 -6001.584)" fill="#898989"/>
    <path id="Path_1904" data-name="Path 1904" d="M150.9,5989.562l-.943,2.34-.211-.084.929-2.345Z" transform="translate(-133.982 -5986.895)" fill="#898989"/>
    <path id="Path_1905" data-name="Path 1905" d="M150.16,6014.033l1.01,2.315-.225.1-1-2.318Z" transform="translate(-134.221 -6005.898)" fill="#898989"/>
    <path id="Path_1906" data-name="Path 1906" d="M140.44,5992l-.971-2.281.237-.1.974,2.295Z" transform="translate(-125.466 -5986.607)" fill="#898989"/>
  </g>
</svg>
