<svg xmlns="http://www.w3.org/2000/svg" width="20.323" height="19.597" viewBox="0 0 20.323 19.597">
  <g id="Group_1585" data-name="Group 1585" transform="translate(0 0)">
    <path id="Path_1907" data-name="Path 1907" d="M103.484,6139.181v9.8a3.044,3.044,0,0,1-2.869,3.177H93.322l-4.9,3.443,1.291-3.443H86.03a3.044,3.044,0,0,1-2.869-3.177v-9.8A3.044,3.044,0,0,1,86.03,6136h14.584A3.044,3.044,0,0,1,103.484,6139.181Z" transform="translate(-83.161 -6136.003)" fill="#898989"/>
    <path id="Path_1908" data-name="Path 1908" d="M92.924,6155.761l1.027,2.085,2.3.334-1.662,1.623.392,2.291-2.055-1.082-2.055,1.082.392-2.291L89.6,6158.18l2.3-.334Z" transform="translate(-87.263 -6150.576)" fill="#898989"/>
    <path id="Path_1909" data-name="Path 1909" d="M116.783,6155.761l1.027,2.085,2.3.334-1.662,1.623.392,2.291-2.055-1.082-2.055,1.082.392-2.291-1.662-1.623,2.3-.334Z" transform="translate(-106.516 -6150.576)" fill="#898989"/>
    <path id="Path_1910" data-name="Path 1910" d="M140.642,6155.761l1.027,2.085,2.3.334L142.3,6159.8l.392,2.291-2.055-1.082-2.055,1.082.392-2.291-1.662-1.623,2.3-.334Z" transform="translate(-125.647 -6150.576)" fill="#898989"/>
  </g>
</svg>
