<svg xmlns="http://www.w3.org/2000/svg" width="16.331" height="16.331" viewBox="0 0 16.331 16.331">
  <path id="Path_12695" data-name="Path 12695" d="M8.634.219a8.165,8.165,0,1,0,4.458,15.006.791.791,0,0,0,.183-1.165l-.335-.409a.788.788,0,0,0-1.033-.169A6.058,6.058,0,1,1,8.634,2.326c3.3,0,6.058,1.9,6.058,5.268,0,1.277-.694,2.625-1.915,2.756-.571-.015-.557-.423-.444-.989L13.1,5.373a.79.79,0,0,0-.776-.94H10.848a.456.456,0,0,0-.442.395v0a2.532,2.532,0,0,0-1.975-.717A4.7,4.7,0,0,0,3.893,9.1c0,2.15,1.211,3.486,3.161,3.486a3.331,3.331,0,0,0,2.469-1.262c.313,1.123,1.337,1.123,2.328,1.123,3.586,0,4.949-2.358,4.949-4.853C16.8,3.1,13.178.219,8.634.219ZM7.92,10.242A1.18,1.18,0,0,1,6.733,8.9a2.2,2.2,0,0,1,1.93-2.395c.734,0,1.172.5,1.172,1.342A2.272,2.272,0,0,1,7.92,10.242Z" transform="translate(-0.469 -0.219)" fill="#898989"/>
</svg>
