<svg xmlns="http://www.w3.org/2000/svg" width="20.374" height="23.926" viewBox="0 0 20.374 23.926">
  <path id="Path_21629" data-name="Path 21629" d="M20.351,6.491V6.472c-.01-.23-.017-.473-.022-.744a2.536,2.536,0,0,0-2.388-2.484,9.84,9.84,0,0,1-6.7-2.823L11.228.407a1.531,1.531,0,0,0-2.081,0L9.131.422a9.841,9.841,0,0,1-6.7,2.823A2.536,2.536,0,0,0,.047,5.729c0,.269-.011.512-.022.743v.043c-.053,2.805-.12,6.3,1.048,9.465a12.048,12.048,0,0,0,2.891,4.5,15.121,15.121,0,0,0,5.657,3.346,1.752,1.752,0,0,0,.232.063,1.712,1.712,0,0,0,.673,0,1.757,1.757,0,0,0,.233-.064,15.131,15.131,0,0,0,5.65-3.348,12.065,12.065,0,0,0,2.891-4.5C20.47,12.8,20.4,9.3,20.351,6.491ZM10.187,17.925a5.963,5.963,0,1,1,5.963-5.963A5.969,5.969,0,0,1,10.187,17.925Zm0,0" transform="translate(0 0.001)" fill="#898989"/>
</svg>
